PathFileType   4   (X/Y/Z)
DataRate	CameraRate	NumFrames	NumMarkers	Units	OrigDataRate	OrigDataStartFrame	OrigNumFrames
120.0	120.0	10	37	mm	120.0	85	168
Frame#	Time	midhip	hip_r	hip_l	knee_r	knee_l	ankle_r	ankle_l	midasis	asis_r	asis_l	psis_r	psis_l	epicondLat_r	epicondLat_l	epicondMed_r	epicondMed_l	malleolusLat_r	malleolusLat_l	malleolusMedv_r	malleolusMedv_l	neck	subclavicle_r	subclavicle_l	sternalnotch	xyphoidprocess	thighwand_r	thighwand_l	upperleg1_r	upperleg1_l	upperleg2_r	upperleg2_l	shankwand_r	shankwand_l	lowerleg1_r	lowerleg1_l	toe_r	toe_l
 	 	X1	Y1	Z1	X2	Y2	Z2	X3	Y3	Z3	X4	Y4	Z4	X5	Y5	Z5	X6	Y6	Z6	X7	Y7	Z7	X8	Y8	Z8	X9	Y9	Z9	X10	Y10	Z10	X11	Y11	Z11	X12	Y12	Z12	X13	Y13	Z13	X14	Y14	Z14	X15	Y15	Z15	X16	Y16	Z16	X17	Y17	Z17	X18	Y18	Z18	X19	Y19	Z19	X20	Y20	Z20	X21	Y21	Z21	X22	Y22	Z22	X23	Y23	Z23	X24	Y24	Z24	X25	Y25	Z25	X26	Y26	Z26	X27	Y27	Z27	X28	Y28	Z28	X29	Y29	Z29	X30	Y30	Z30	X31	Y31	Z31	X32	Y32	Z32	X33	Y33	Z33	X34	Y34	Z34	X35	Y35	Z35	X36	Y36	Z36	X37	Y37	Z37

	85	0.98333	544.328	822.471	-263.081	533.828	799.126	-187.843	515.082	794.669	-338.745	611.826	436.089	-200.630	407.729	428.728	-343.707	680.752	65.917	-212.229	218.277	114.647	-335.772	616.277	868.355	-273.746	627.077	871.845	-155.003	605.476	864.865	-392.489	424.301	934.512	-220.302	416.803	930.197	-275.155	626.634	437.295	-144.565	414.467	427.532	-401.302	597.906	432.049	-247.336	430.239	435.411	-276.597	668.272	62.408	-174.388	204.200	122.212	-372.441	689.194	77.151	-244.902	232.366	118.296	-311.743	485.849	1370.568	-261.737	610.986	1308.216	-217.918	606.454	1302.774	-324.440	605.057	1302.278	-270.316	643.883	1232.202	-272.228	730.845	596.624	-240.291	489.711	549.872	-482.755	673.926	635.206	-168.103	438.992	610.069	-424.937	679.032	547.171	-168.764	429.629	523.974	-412.467	648.160	138.309	-101.417	363.095	176.042	-337.780	647.704	147.969	-143.897	324.884	196.743	-342.477	783.273	42.157	-181.239	300.548	47.188	-366.642
	86	0.99167	549.813	823.063	-261.473	539.543	799.998	-185.960	520.891	795.521	-336.873	614.493	436.532	-199.260	414.912	428.802	-344.116	680.944	66.030	-212.083	221.460	117.697	-336.375	621.984	869.296	-271.815	632.712	872.799	-153.040	611.255	865.792	-390.590	429.853	935.287	-218.859	422.473	930.945	-273.632	629.123	437.496	-143.143	422.053	427.875	-401.667	598.970	433.014	-245.245	437.150	435.152	-276.661	668.314	62.457	-174.298	207.165	125.678	-372.870	688.990	77.952	-244.736	235.461	121.268	-312.367	490.943	1371.684	-260.112	616.320	1309.396	-216.195	611.684	1303.827	-322.869	610.447	1303.258	-268.712	649.215	1233.341	-270.535	735.146	595.789	-238.214	497.408	550.783	-482.250	678.361	635.079	-166.500	446.574	610.551	-424.183	681.800	546.939	-166.722	437.039	524.262	-412.114	648.433	138.225	-100.910	367.175	176.770	-339.305	647.855	147.910	-142.900	329.427	197.981	-343.658	783.410	41.895	-181.189	301.477	47.404	-366.818
	87	1.00000	555.121	823.479	-259.526	545.180	800.810	-184.126	526.625	796.371	-335.053	617.079	436.888	-197.921	422.441	428.734	-344.621	681.218	66.142	-211.936	224.923	120.785	-336.903	627.621	870.200	-269.908	638.274	873.671	-151.125	616.968	866.730	-388.691	435.347	936.050	-217.404	428.091	931.649	-272.083	631.461	437.600	-141.737	429.963	428.099	-402.128	600.535	433.700	-240.722	445.393	434.847	-276.726	668.388	62.497	-174.226	210.399	129.191	-373.212	689.317	78.270	-244.581	239.162	123.861	-313.119	496.352	1372.295	-258.808	621.697	1310.169	-214.640	617.253	1304.894	-321.346	615.785	1304.214	-267.083	654.827	1234.330	-269.143	739.348	594.864	-235.979	505.271	551.672	-481.881	683.909	635.158	-164.568	454.163	610.632	-423.629	685.859	546.965	-163.940	445.038	524.557	-411.900	648.607	138.146	-100.470	371.538	177.471	-340.869	648.197	147.973	-142.532	333.573	199.068	-344.979	783.446	41.648	-181.005	302.452	47.599	-366.914
	88	1.00833	560.593	824.090	-257.401	550.722	801.565	-182.345	532.272	797.210	-333.287	619.618	437.181	-196.635	430.362	428.506	-345.216	681.560	66.229	-211.754	228.672	123.892	-337.346	633.175	871.065	-268.026	643.742	874.466	-149.262	622.608	867.664	-386.789	440.779	936.799	-215.938	433.655	932.306	-270.516	633.667	437.630	-140.364	438.224	428.192	-402.680	604.239	433.415	-236.549	454.892	432.707	-278.166	668.484	62.512	-174.135	213.916	132.729	-373.460	690.113	78.381	-244.382	243.578	126.414	-313.837	501.674	1372.811	-256.909	627.027	1310.885	-213.237	622.627	1305.755	-319.487	621.082	1305.138	-265.429	660.315	1235.186	-267.597	743.503	593.938	-233.571	513.272	552.544	-481.656	689.205	634.843	-162.543	461.578	610.622	-422.447	690.756	546.983	-161.325	453.440	524.504	-412.012	648.699	138.048	-100.108	376.186	178.146	-342.442	648.761	147.950	-142.394	338.288	200.300	-345.969	783.391	41.421	-180.686	303.492	47.807	-366.945
	89	1.01667	566.474	825.160	-255.275	556.154	802.266	-180.625	537.837	798.030	-331.587	622.135	437.438	-195.409	438.715	428.120	-345.886	681.956	66.273	-211.497	232.715	127.012	-337.704	638.640	871.887	-266.174	649.097	875.191	-147.458	628.184	868.584	-384.890	446.145	937.527	-214.459	439.152	932.914	-268.941	635.766	437.619	-139.034	446.853	428.160	-403.312	611.097	432.085	-236.647	464.595	430.903	-279.150	668.584	62.492	-173.989	217.732	136.286	-373.613	691.195	78.306	-244.090	247.881	129.268	-314.323	506.890	1373.442	-254.858	631.945	1311.711	-211.658	627.624	1306.650	-317.532	626.354	1306.013	-263.769	665.325	1236.072	-265.847	747.638	593.083	-231.001	521.384	553.404	-481.579	692.072	634.045	-160.307	469.211	610.575	-421.453	695.059	546.702	-159.777	461.904	524.078	-411.943	648.705	137.912	-99.825	381.119	178.803	-344.005	649.422	147.765	-142.345	343.780	201.680	-347.085	783.260	41.220	-180.260	304.628	48.076	-366.919
	90	1.02500	572.407	826.334	-253.144	561.472	802.911	-178.981	543.329	798.822	-329.967	624.641	437.685	-194.233	447.506	427.596	-346.617	682.385	66.265	-211.138	237.065	130.150	-337.977	644.017	872.666	-264.364	654.330	875.850	-145.722	633.705	869.483	-383.006	451.449	938.219	-212.970	444.567	933.470	-267.368	637.782	437.598	-137.742	455.844	428.018	-404.013	615.764	432.768	-239.143	474.039	430.886	-279.150	668.667	62.431	-173.760	221.859	139.871	-373.675	692.449	78.155	-243.575	251.131	132.305	-314.421	512.203	1374.360	-253.099	637.314	1312.669	-209.988	632.834	1307.562	-315.842	631.606	1306.843	-262.123	670.618	1237.009	-264.189	751.743	592.351	-228.303	529.582	554.250	-481.650	694.589	633.552	-157.696	477.106	610.463	-421.661	697.809	546.279	-158.606	470.493	523.853	-412.040	648.615	137.724	-99.601	386.332	179.450	-345.552	650.095	147.473	-142.140	349.443	202.847	-348.290	783.084	41.047	-179.781	305.899	48.462	-366.839
	91	1.03333	577.897	827.100	-251.041	566.681	803.497	-177.418	548.753	799.577	-328.434	627.139	437.943	-193.087	456.710	426.962	-347.400	682.819	66.205	-210.666	241.729	133.330	-338.174	649.307	873.400	-262.602	659.441	876.446	-144.056	639.172	870.355	-381.149	456.695	938.862	-211.479	449.881	933.975	-265.809	639.744	437.601	-136.474	465.174	427.792	-404.773	617.455	434.042	-239.806	484.335	430.687	-279.643	668.713	62.332	-173.437	226.309	143.505	-373.652	693.285	78.068	-242.946	257.257	134.769	-314.953	517.505	1375.539	-251.210	643.026	1313.635	-208.409	637.889	1308.212	-314.118	636.802	1307.626	-260.490	675.857	1237.747	-262.528	755.807	591.760	-225.535	537.850	555.080	-481.867	697.790	632.892	-155.427	484.948	610.404	-421.993	699.616	545.818	-156.838	479.443	523.733	-412.445	648.428	137.488	-99.399	391.819	180.103	-347.080	650.356	147.244	-141.712	355.527	203.912	-349.056	782.894	40.903	-179.302	307.333	49.015	-366.712
	92	1.04167	583.171	827.699	-249.209	571.788	804.023	-175.932	554.105	800.291	-326.982	629.627	438.229	-191.947	466.264	426.247	-348.228	683.229	66.103	-210.097	246.720	136.582	-338.312	654.508	874.089	-260.892	664.440	876.982	-142.448	644.576	871.196	-379.336	461.877	939.448	-209.995	455.078	934.426	-264.277	641.679	437.651	-135.216	474.793	427.502	-405.584	619.395	434.235	-238.466	494.398	429.463	-280.836	668.710	62.204	-173.029	231.097	147.216	-373.566	693.306	78.061	-242.382	262.410	137.740	-315.244	522.341	1376.275	-249.315	648.324	1314.449	-206.856	642.976	1308.946	-312.402	641.941	1308.357	-258.855	681.162	1238.576	-260.914	759.810	591.302	-222.764	546.182	555.886	-482.206	700.896	632.273	-153.224	492.547	610.303	-421.846	701.614	545.114	-154.403	488.183	523.353	-412.928	648.162	137.221	-99.176	397.577	180.781	-348.584	649.946	147.206	-141.202	361.777	204.935	-350.014	782.709	40.789	-178.868	308.942	49.782	-366.546
	93	1.05000	588.459	828.355	-247.765	576.802	804.487	-174.518	559.380	800.962	-325.603	632.098	438.549	-190.800	476.090	425.480	-349.105	683.585	65.977	-209.474	252.047	139.941	-338.412	659.621	874.730	-259.233	669.338	877.456	-140.879	649.903	872.005	-377.587	466.978	939.981	-208.529	460.145	934.822	-262.787	643.609	437.759	-133.959	484.647	427.171	-406.445	621.811	434.629	-236.349	505.312	428.001	-281.980	668.657	62.064	-172.571	236.241	151.030	-373.443	693.250	78.232	-241.705	267.793	141.029	-315.344	527.125	1376.744	-251.915	653.546	1315.058	-205.343	648.135	1309.681	-311.104	647.051	1309.027	-257.215	686.389	1239.268	-259.624	763.738	590.944	-220.059	554.570	556.658	-482.627	704.385	632.413	-150.997	500.686	609.708	-421.772	704.302	544.773	-151.902	497.355	522.706	-413.415	647.859	136.948	-98.889	403.603	181.498	-350.050	649.444	147.242	-140.436	368.061	206.093	-351.409	782.536	40.707	-178.502	310.739	50.793	-366.348
	94	1.05833	593.466	828.755	-246.453	581.725	804.884	-173.161	564.565	801.588	-324.282	634.536	438.896	-189.644	486.115	424.680	-350.035	683.858	65.849	-208.865	257.719	143.422	-338.489	664.641	875.319	-257.623	674.146	877.860	-139.336	655.135	872.778	-375.910	471.972	940.462	-207.099	465.080	935.164	-261.353	645.547	437.921	-132.707	494.683	426.813	-407.359	625.611	435.230	-235.658	516.589	426.102	-283.376	668.560	61.933	-172.114	241.760	154.952	-373.308	693.470	78.358	-240.936	273.722	144.283	-315.559	531.542	1378.300	-245.645	658.543	1315.643	-203.720	652.811	1310.092	-309.625	652.103	1309.629	-255.567	691.009	1239.660	-258.047	767.571	590.655	-217.482	563.005	557.396	-483.084	708.338	632.695	-149.331	509.451	608.844	-421.523	707.910	544.723	-150.400	506.785	522.012	-413.915	647.575	136.695	-98.514	409.900	182.271	-351.451	649.177	147.242	-139.662	374.861	207.639	-352.341	782.379	40.653	-178.210	312.742	52.062	-366.109
